<svg xmlns="http://www.w3.org/2000/svg" width="186.874" height="33.414" viewBox="0 0 186.874 33.414">
  <g id="logo" transform="translate(-184.858 -327.234)">
    <path id="Path_77686" data-name="Path 77686" d="M16.492-18.956a1.529,1.529,0,0,1,1.484-.952,1.965,1.965,0,0,1,1.26.448,1.379,1.379,0,0,1,.56,1.12,1.808,1.808,0,0,1-.168.7L11.872-.952a1.831,1.831,0,0,1-.77.826A2.205,2.205,0,0,1,10,.168,2.205,2.205,0,0,1,8.89-.126a1.831,1.831,0,0,1-.77-.826L.392-17.64a1.763,1.763,0,0,1-.168-.672A1.394,1.394,0,0,1,.8-19.46a2.06,2.06,0,0,1,1.3-.448,1.713,1.713,0,0,1,.882.238,1.578,1.578,0,0,1,.63.714l6.44,14.308ZM23.912.168a1.733,1.733,0,0,1-1.3-.5,1.808,1.808,0,0,1-.49-1.316V-18.088a1.76,1.76,0,0,1,.49-1.3,1.76,1.76,0,0,1,1.3-.49,1.8,1.8,0,0,1,1.33.49,1.76,1.76,0,0,1,.49,1.3V-1.652a1.808,1.808,0,0,1-.49,1.316A1.769,1.769,0,0,1,23.912.168ZM31.724,0A1.753,1.753,0,0,1,30.45-.448a1.674,1.674,0,0,1-.462-1.26V-18.032a1.674,1.674,0,0,1,.462-1.26,1.753,1.753,0,0,1,1.274-.448h5.544q4.844,0,7.518,2.59A9.646,9.646,0,0,1,47.46-9.884,9.683,9.683,0,0,1,44.786-2.59Q42.112,0,37.268,0Zm5.32-2.94q6.8,0,6.8-6.944,0-6.916-6.8-6.916H33.6V-2.94Zm25.2-16.324a1.512,1.512,0,0,1,1.2-.616,1.6,1.6,0,0,1,1.148.49,1.567,1.567,0,0,1,.5,1.162,1.639,1.639,0,0,1-.42,1.064L58.324-9.408v7.756a1.759,1.759,0,0,1-.5,1.344,1.8,1.8,0,0,1-1.288.476,1.838,1.838,0,0,1-1.316-.476,1.759,1.759,0,0,1-.5-1.344V-9.408l-6.356-7.756a1.639,1.639,0,0,1-.42-1.064,1.566,1.566,0,0,1,.5-1.162,1.6,1.6,0,0,1,1.148-.49,1.512,1.512,0,0,1,1.2.616l5.74,7.112ZM82.964-2.156a1.724,1.724,0,0,1,.168.728,1.392,1.392,0,0,1-.518,1.092,1.766,1.766,0,0,1-1.19.448,1.591,1.591,0,0,1-.84-.238,1.588,1.588,0,0,1-.616-.742L78.288-4.62H68.432L66.752-.868a1.588,1.588,0,0,1-.616.742,1.64,1.64,0,0,1-.868.238,1.783,1.783,0,0,1-1.176-.448,1.378,1.378,0,0,1-.532-1.092,1.724,1.724,0,0,1,.168-.728l7.728-16.6a1.807,1.807,0,0,1,.77-.854,2.205,2.205,0,0,1,1.106-.294,2.205,2.205,0,0,1,1.106.294,1.807,1.807,0,0,1,.77.854ZM77.056-7.42l-3.7-8.316-3.7,8.316Zm24.108,4.7a1.624,1.624,0,0,1,.56,1.2,1.557,1.557,0,0,1-.49,1.134,1.588,1.588,0,0,1-1.162.49,1.793,1.793,0,0,1-1.288-.588L89.46-9.212v7.56a1.808,1.808,0,0,1-.49,1.316,1.769,1.769,0,0,1-1.33.5,1.733,1.733,0,0,1-1.3-.5,1.808,1.808,0,0,1-.49-1.316V-18.088a1.76,1.76,0,0,1,.49-1.3,1.76,1.76,0,0,1,1.3-.49,1.8,1.8,0,0,1,1.33.49,1.76,1.76,0,0,1,.49,1.3v7.2l9.016-8.456a1.581,1.581,0,0,1,1.148-.5,1.557,1.557,0,0,1,1.134.49,1.557,1.557,0,0,1,.49,1.134,1.6,1.6,0,0,1-.56,1.176l-7.532,6.888ZM112.2.252q-4.06,0-6.16-2.1t-2.1-6.132V-18.088a1.789,1.789,0,0,1,.476-1.3,1.713,1.713,0,0,1,1.288-.49,1.713,1.713,0,0,1,1.288.49,1.789,1.789,0,0,1,.476,1.3v10.3a5.487,5.487,0,0,0,1.2,3.85,4.57,4.57,0,0,0,3.528,1.3,4.506,4.506,0,0,0,3.5-1.316,5.5,5.5,0,0,0,1.2-3.836v-10.3a1.789,1.789,0,0,1,.476-1.3,1.713,1.713,0,0,1,1.288-.49,1.713,1.713,0,0,1,1.288.49,1.789,1.789,0,0,1,.476,1.3V-7.98a8.317,8.317,0,0,1-2.1,6.118Q116.228.252,112.2.252ZM126.28,0a1.7,1.7,0,0,1-1.26-.448,1.665,1.665,0,0,1-.448-1.232V-18.088a1.76,1.76,0,0,1,.49-1.3,1.76,1.76,0,0,1,1.3-.49,1.8,1.8,0,0,1,1.33.49,1.76,1.76,0,0,1,.49,1.3v15.12h7.868q1.68,0,1.68,1.484T136.052,0Z" transform="translate(234 355.143)"/>
    <g id="Group_3695" data-name="Group 3695" transform="translate(-30.705 -712.334)">
      <path id="Path_1335" data-name="Path 1335" d="M236.767,1070.526l-6.039-30.425s-.248-.441-.518-.519-.565.209-.565.209l-13.78,16.025a1.619,1.619,0,0,0-.3.762,1,1,0,0,0,.3.632l19.354,13.316a1.751,1.751,0,0,0,.858.383A1.035,1.035,0,0,0,236.767,1070.526Z" fill="#534ae3"/>
      <path id="Path_1336" data-name="Path 1336" d="M249.639,1073.166l-3.2-15.085a1.673,1.673,0,0,1,.136-.81,2.063,2.063,0,0,1,.592-.646l20.869-14.034s.836-.532.978-.33-.411,1.138-.411,1.138l-17.674,29.969s-.367.483-.748.406S249.639,1073.166,249.639,1073.166Z" transform="translate(-9.351 -0.802)" fill="#534ae3"/>
    </g>
  </g>
</svg>
